<svg width="607" height="506" viewBox="0 0 607 506" fill="none" xmlns="http://www.w3.org/2000/svg">
<g id="super-hero-man-edited 1" clip-path="url(#clip0)">
<g id="super-hero-man 1">
<path id="Vector" d="M590.249 152.841C588.467 151.391 586.802 149.802 585.27 148.089C585.27 148.497 585.27 148.906 585.27 149.314C573.11 136.906 573.538 121.875 578.517 108.162L580.163 107.553C587.98 86.8873 605.896 69.554 605.896 69.554L603.219 70.6784C604.049 69.8217 604.524 69.3399 604.524 69.3399C493.43 116.729 416.133 119.493 407.513 119.653C402.199 117.646 358.418 101.704 316.062 95.7614C302.737 93.8273 289.506 92.8569 277.62 93.6065L264.276 36.3129L264.022 36.4668C263.399 31.5546 261.09 20.8602 252.644 14.228C241.368 5.42085 249.767 45.9433 249.767 45.9433L250.69 45.5083L255.415 96.5311L253.113 98.4585C239.763 102.438 225.987 104.812 212.075 105.532C214.64 103.16 216.754 100.341 218.313 97.2137C219.209 97.3984 220.136 97.3589 221.013 97.0986C221.89 96.8382 222.689 96.3651 223.339 95.7213C223.777 95.2602 224.148 94.7395 224.443 94.1753C225.057 93.1822 225.552 92.1194 225.915 91.0098C228.686 83.5679 231.711 76.1059 232.607 68.2223C233.504 60.3386 232.032 51.7857 226.725 45.8764C221.418 39.967 211.741 37.7183 205.242 42.2825C203.562 43.4604 202.137 45.0264 200.29 45.9232C194.662 48.647 188.418 44.23 183.177 40.8169C177.087 36.8483 169.043 34.004 162.732 37.6046C160.763 38.7499 159.142 40.4113 158.048 42.4097C156.317 45.153 155.503 48.3757 155.725 51.6117C156.087 56.8117 158.891 61.6503 162.645 65.2374C163.906 66.5607 165.457 67.5731 167.176 68.1955C167.614 68.33 168.061 68.4284 168.514 68.4899C166.421 71.6575 164.973 75.2064 164.255 78.9341C163.536 82.6618 163.559 86.4952 164.325 90.2135L161.989 104.348C159.915 105.318 158.757 107.44 158.108 109.514C148.344 109.802 138.352 116.494 138.352 116.494L99.9777 154.869C90.0261 161.621 96.7787 174.056 96.7787 174.056L119.165 241.214L120.403 240.29C124.994 248.656 138.472 271.745 141.062 260.234C144.228 246.287 134.37 233.625 134.37 233.625H134.249L131.7 230.345L122.33 180.42L134.182 168.648L150.11 166.326L150.82 269.703C121.681 346.458 125.235 381.634 125.235 381.634L150.82 477.576L154.086 477.034L154.875 480.193L155.163 480.092L156.582 487.173H154.025L150.826 496.77C150.826 496.77 134.484 496.415 134.838 499.969C135.193 503.522 144.081 509.565 166.821 503.168L173.219 496.77C173.219 496.77 176.418 493.571 170.02 487.173H169.565L167.792 474.752L170.02 474.377L150.82 378.415C166.808 365.264 195.592 314.455 195.592 314.455C195.592 314.455 224.369 365.271 240.364 378.415L221.177 474.35L223.405 474.725L221.659 487.146H221.204C214.806 493.544 218.005 496.743 218.005 496.743L224.403 503.141C247.157 509.539 256.031 503.495 256.386 499.942C256.74 496.388 240.397 496.743 240.397 496.743L237.198 487.146H234.642L236.482 477.937L236.81 476.953L240.397 477.549L265.982 381.607C265.982 381.607 265.507 326.174 240.665 256.881L291.701 328.449L332.083 392.121C334.219 386.972 336.849 382.041 339.933 377.397L369.152 350.099C403.116 329.895 448.457 328.683 476.458 330.35L502.277 333.141L514.417 269.188C521.491 260.08 531.992 252.223 547.257 246.347C578.925 234.167 605.481 208.307 605.267 183.164C605.728 183.679 606.177 184.195 606.605 184.717C606.933 173.594 602.108 162.552 590.249 152.841ZM239.728 247.706L239.695 246.528L241.167 248.843L239.728 247.706Z" fill="url(#paint0_linear)"/>
<path id="Vector_2" d="M139.791 234.234H139.67L133.988 226.906L124.793 236.101L125.81 237.627L124.652 237.908C124.652 237.908 143.211 273.752 146.302 260.147C149.394 246.541 139.791 234.234 139.791 234.234Z" fill="#FDB797"/>
<path id="&#60;Clipping Path&#62;" d="M178.533 106.161C178.533 106.161 212.376 116.314 259.765 101.082C307.154 85.85 405.305 123.08 405.305 123.08C405.305 123.08 483.151 123.08 598.233 74.0045C598.233 74.0045 545.771 124.773 583.001 155.237C620.231 185.701 586.387 229.696 542.385 246.621C498.382 263.546 495.003 297.39 498.382 329.547C501.762 361.704 498.382 331.24 498.382 331.24C498.382 331.24 366.382 307.549 332.532 388.795L164.994 124.78C164.994 124.78 154.842 104.475 178.533 106.161Z" fill="#0AEFFF"/>
<path id="Vector_3" d="M239.976 467.644L236.857 483.244H224.376L227.501 461.407L239.976 467.644Z" fill="#FDB797"/>
<path id="Vector_4" opacity="0.1" d="M239.721 471.138L238.845 473.775L226.537 470.261L227.414 468.501L239.721 471.138Z" fill="black"/>
<path id="Vector_5" d="M158.884 468.983L162.003 484.583H174.477L171.359 462.745L158.884 468.983Z" fill="#FDB797"/>
<path id="Vector_6" opacity="0.1" d="M158.837 471.138L159.714 474.651L172.028 470.261V468.501L158.837 471.138Z" fill="black"/>
<path id="Vector_7" d="M266.377 44.4977C266.377 44.4977 266.029 28.8643 255.047 20.2579C244.065 11.6515 252.283 51.17 252.283 51.17L266.377 44.4977Z" fill="#FDB797"/>
<path id="Vector_8" d="M174.477 486.149H158.884L155.765 495.518C155.765 495.518 139.824 495.17 140.172 498.637C140.52 502.103 149.18 508.006 171.359 501.755L177.596 495.518C177.596 495.518 180.715 492.386 174.477 486.149Z" fill="#333333"/>
<path id="Vector_9" d="M224.078 484.529H239.671L242.79 493.899C242.79 493.899 258.731 493.551 258.383 497.017C258.035 500.484 249.375 506.387 227.197 500.136L220.959 493.899C220.959 493.899 217.841 490.767 224.078 484.529Z" fill="#333333"/>
<path id="Vector_10" d="M243.074 269.375H155.765C127.35 344.23 130.816 378.542 130.816 378.542L155.765 472.108L174.504 468.99L155.765 375.443C171.359 362.621 199.433 313.063 199.433 313.063C199.433 313.063 227.494 362.594 243.074 375.443L224.336 469.01L243.074 472.128L268.024 378.562C268.024 378.562 271.51 344.23 243.074 269.375Z" fill="#333333"/>
<path id="Vector_11" opacity="0.1" d="M155.765 270.587C155.765 270.587 205.289 289.325 243.094 270.587H155.765Z" fill="black"/>
<path id="Vector_12" d="M153.008 157.398L128.059 182.348L137.428 232.253L124.954 241.622L103.123 176.124C103.123 176.124 96.5377 163.997 106.242 157.385L143.672 119.954C143.672 119.954 159.734 109.193 170.776 114.708C181.819 120.222 152.794 157.004 152.794 157.004" fill="#3AD29F"/>
<path id="Vector_13" d="M152.64 157.091L155.759 269.376C155.759 269.376 205.282 288.114 243.088 269.376L239.969 163.676L239.173 160.182L239.748 158.462L277.226 127.383C287.498 121.728 282.071 109.039 282.071 109.039L266.411 41.8007L253.113 49.952L257.798 100.506L231.108 122.645L230.439 122.611V122.779L162.023 119.667" fill="#3AD29F"/>
<path id="Vector_14" d="M201.481 104.241H197.72C191.869 104.241 187.126 108.984 187.126 114.835V121.715C187.126 127.566 191.869 132.309 197.72 132.309H201.481C207.332 132.309 212.075 127.566 212.075 121.715V114.835C212.075 108.984 207.332 104.241 201.481 104.241Z" fill="#FDB797"/>
<path id="Vector_15" opacity="0.1" d="M187.922 116.227C191.883 117.61 196.103 118.087 200.273 117.624C204.442 117.161 208.455 115.768 212.015 113.55C211.136 111.145 209.541 109.066 207.445 107.596C205.348 106.125 202.851 105.332 200.29 105.325C197.258 105.336 194.332 106.447 192.058 108.452C189.782 110.457 188.313 113.22 187.922 116.227Z" fill="black"/>
<path id="Vector_16" d="M196.482 116.715C211.984 116.715 224.55 104.149 224.55 88.6474C224.55 73.1458 211.984 60.5795 196.482 60.5795C180.98 60.5795 168.414 73.1458 168.414 88.6474C168.414 104.149 180.98 116.715 196.482 116.715Z" fill="#FDB797"/>
<path id="Vector_17" opacity="0.1" d="M176.987 73.1679C175.244 73.3881 173.475 73.2884 171.767 72.8735C170.09 72.2645 168.579 71.2746 167.35 69.9823C163.683 66.4621 160.952 61.7641 160.597 56.6913C160.243 51.6184 162.605 46.2444 167.002 43.7281C173.159 40.2213 181.009 42.9919 186.945 46.8601C192.052 50.2063 198.148 54.4962 203.636 51.8393C205.436 50.9693 206.828 49.4367 208.468 48.2923C214.806 43.8419 224.242 46.037 229.415 51.7991C234.588 57.5613 236.041 65.9 235.151 73.5962C234.26 81.2925 231.316 88.5671 228.612 95.8217C228.191 97.2532 227.478 98.5816 226.517 99.7233C223.225 103.103 217.061 100.48 214.893 96.2901C211.125 89.0021 214.893 76.3669 205.992 72.1172C198.905 68.7443 184.596 72.6727 176.987 73.1679Z" fill="black"/>
<path id="Vector_18" d="M177.409 72.4719C175.665 72.6921 173.896 72.5924 172.189 72.1775C170.512 71.5685 169 70.5787 167.772 69.2864C164.104 65.7662 161.374 61.0681 161.019 55.9953C160.664 50.9224 163.027 45.5484 167.424 43.0321C173.581 39.5253 181.431 42.2959 187.367 46.1641C192.473 49.5103 198.57 53.8002 204.058 51.1433C205.858 50.2733 207.25 48.7407 208.89 47.5963C215.227 43.1459 224.664 45.341 229.837 51.1031C235.01 56.8653 236.462 65.204 235.572 72.9002C234.682 80.5965 231.697 87.8711 229.02 95.1257C228.599 96.5572 227.886 97.8856 226.926 99.0273C223.633 102.407 217.469 99.7836 215.301 95.5941C211.533 88.3061 215.301 75.6709 206.4 71.4212C199.346 68.0483 185.011 71.9834 177.409 72.4719Z" fill="#333333"/>
<path id="Vector_19" d="M212.075 94.8847C213.798 94.8847 215.194 92.092 215.194 88.6474C215.194 85.2029 213.798 82.4101 212.075 82.4101C210.353 82.4101 208.957 85.2029 208.957 88.6474C208.957 92.092 210.353 94.8847 212.075 94.8847Z" fill="#FDB797"/>
<path id="Vector_20" opacity="0.1" d="M152.68 157.077L160.597 160.785L152.68 170.462V157.077Z" fill="black"/>
<path id="Vector_21" opacity="0.1" d="M239.721 158.442L234.448 164.305L237.961 169.579L240.016 163.716L239.721 158.442Z" fill="black"/>
<path id="Vector_22" d="M199.969 129.832V134.912C199.969 134.912 162.926 128.146 161.983 117.987L186.43 119.68L199.969 129.832Z" fill="#6C63FF"/>
<path id="Vector_23" d="M199.969 129.832V134.912C199.969 134.912 237.011 128.146 237.955 117.987L213.507 119.68L199.969 129.832Z" fill="#6C63FF"/>
<path id="Vector_24" d="M162.096 118.234C162.096 118.234 162.096 107.6 169.19 107.6C176.284 107.6 183.372 128.875 183.372 128.875L162.096 118.234Z" fill="#6C63FF"/>
</g>
</g>
<defs>
<linearGradient id="paint0_linear" x1="350.601" y1="505.945" x2="350.601" y2="12.9832" gradientUnits="userSpaceOnUse">
<stop stop-color="#808080" stop-opacity="0.25"/>
<stop offset="0.54" stop-color="#808080" stop-opacity="0.12"/>
<stop offset="1" stop-color="#808080" stop-opacity="0.1"/>
</linearGradient>
<clipPath id="clip0">
<rect width="607" height="505.945" fill="white"/>
</clipPath>
</defs>
</svg>
