<svg width="392" height="469" viewBox="0 0 392 469" fill="none" xmlns="http://www.w3.org/2000/svg">
<rect width="392" height="469"/>
<g id="super-hero-woman-edited 1">
<g id="super-hero-woman 1">
<path id="Vector_2" d="M192.246 113.698C192.246 113.698 260.739 147.709 273.021 142.985C285.303 138.261 289.554 96.2208 289.554 96.2208L239.011 86.7737L192.246 113.698Z" fill="#6C63FF"/>
<path id="Vector_3" opacity="0.1" d="M192.246 113.698C192.246 113.698 260.739 147.709 273.021 142.985C285.303 138.261 289.554 96.2208 289.554 96.2208L239.011 86.7737L192.246 113.698Z" fill="black"/>
<path id="Vector_4" d="M334.192 62.9191H289.318V102.125H334.192V62.9191Z" fill="#FF6584"/>
<path id="Vector_5" opacity="0.1" d="M334.192 62.9191H289.318V102.125H334.192V62.9191Z" fill="black"/>
<path id="Vector_6" d="M248.458 229.9C248.458 229.9 246.569 270.996 259.323 270.051C272.076 269.106 259.323 231.317 259.323 231.317L248.458 229.9Z" fill="#FBBEBE"/>
<path id="Vector_7" d="M300.891 68.8236C300.891 68.8236 303.724 86.7736 298.529 89.1356C293.333 91.4975 290.026 93.3871 290.026 93.3871L301.835 101.417L323.564 102.834L329.232 98.5827L334.428 93.8588C334.428 93.8588 325.926 91.9699 325.926 87.7184C325.926 83.4669 325.454 70.7132 325.454 70.7132L300.891 68.8236Z" fill="#FBBEBE"/>
<path id="Vector_8" opacity="0.1" d="M300.891 68.8236C300.891 68.8236 303.724 86.7736 298.529 89.1356C293.333 91.4975 290.026 93.3871 290.026 93.3871L301.835 101.417L323.564 102.834L329.232 98.5827L334.428 93.8588C334.428 93.8588 325.926 91.9699 325.926 87.7184C325.926 83.4669 325.454 70.7132 325.454 70.7132L300.891 68.8236Z" fill="black"/>
<path id="Vector_9" d="M271.132 236.985C271.132 236.985 257.433 280.915 257.433 313.036C257.433 313.036 234.759 364.052 235.704 389.087L230.036 423.57L238.066 426.403L244.207 421.208C244.207 421.208 246.097 402.785 252.237 393.811C258.378 384.835 272.549 342.323 272.549 342.323C272.549 342.323 310.338 262.965 308.921 251.629C307.504 240.292 271.132 236.985 271.132 236.985Z" fill="#FBBEBE"/>
<path id="Vector_10" d="M354.74 227.066C354.74 227.066 363.715 231.317 350.961 306.895C350.961 306.895 358.046 356.966 351.906 384.363L350.961 411.76H341.042L339.152 408.926C339.152 408.926 338.68 384.363 335.373 377.75C332.066 371.137 329.233 332.875 329.233 332.875C329.233 332.875 314.117 254.936 317.423 248.322C320.73 241.709 354.74 227.066 354.74 227.066Z" fill="#FBBEBE"/>
<path id="Vector_11" d="M228.619 415.539C228.619 415.539 231.926 423.097 238.066 421.208C244.207 419.318 245.624 419.318 245.624 419.318C245.624 419.318 241.373 441.047 242.79 451.439C244.207 461.831 241.845 468.444 232.398 468.444C222.95 468.444 221.533 457.107 221.533 457.107L225.785 430.183L228.619 415.539Z" fill="#2F2E41"/>
<path id="Vector_12" d="M337.263 403.73C337.263 403.73 340.569 410.343 345.765 408.927C350.961 407.509 352.851 405.147 352.851 405.147C352.851 405.147 352.378 419.791 354.268 426.404C356.158 433.017 360.408 451.911 350.489 452.856C347.765 453.187 345.006 452.63 342.623 451.269C340.24 449.908 338.361 447.813 337.263 445.298V403.73Z" fill="#2F2E41"/>
<path id="Vector_13" d="M313.645 81.105C325.123 81.105 334.428 71.8 334.428 60.3213C334.428 48.8427 325.123 39.537 313.645 39.537C302.166 39.537 292.86 48.8427 292.86 60.3213C292.86 71.8 302.166 81.105 313.645 81.105Z" fill="#FBBEBE"/>
<path id="Vector_14" d="M351.906 97.6379C351.906 97.6379 335.443 91.1737 329.503 92.0442C326.944 94.2185 323.961 95.8389 320.743 96.8019C317.526 97.7643 314.144 98.0497 310.81 97.6379C299.474 96.2208 295.04 90.7802 295.04 90.7802C295.04 90.7802 264.518 97.6379 266.408 100.472C268.297 103.307 276.8 149.598 276.8 149.598C276.8 149.598 282.468 189.749 275.855 203.448C269.242 217.147 265.935 239.82 268.77 241.709C271.604 243.599 303.252 252.101 307.031 254.463C310.81 256.825 312.227 248.795 314.589 250.212C316.951 251.629 322.147 253.991 325.454 252.101C328.76 250.212 360.881 233.206 359.936 229.9C358.991 226.594 346.71 186.443 342.459 178.412C338.207 170.382 341.514 153.377 343.875 150.07C346.237 146.764 350.961 142.985 351.906 133.538C352.851 124.09 351.906 97.6379 351.906 97.6379Z" fill="#2F2E41"/>
<path id="Vector_15" d="M267.449 99.0121C267.449 99.0121 263.574 101.889 262.156 108.03C260.739 114.171 258.85 163.296 258.85 163.296C258.85 163.296 241.373 230.845 245.152 232.262C248.93 233.679 259.795 236.513 261.212 235.096C262.629 233.679 278.689 176.523 277.272 170.382C275.855 164.241 279.162 146.292 279.162 146.292L267.449 99.0121Z" fill="#2F2E41"/>
<path id="Vector_16" d="M354.74 186.915C354.74 186.915 329.233 174.161 326.398 182.664C323.564 191.166 353.323 200.141 353.323 200.141C353.323 200.141 363.715 196.362 363.715 194C363.715 191.638 354.74 186.915 354.74 186.915Z" fill="#FBBEBE"/>
<path id="Vector_17" d="M346.71 99.5274L351.906 97.6379C351.906 97.6379 354.74 95.7484 358.046 102.834C361.353 109.919 397.253 151.487 390.64 164.714C384.026 177.94 362.298 204.864 361.353 202.976C360.408 201.086 349.544 186.915 351.434 185.498C353.323 184.081 375.052 164.714 372.217 161.88C369.384 159.046 357.574 134.955 350.961 134.01C344.348 133.066 346.71 99.5274 346.71 99.5274Z" fill="#2F2E41"/>
<path id="Cape" d="M290.735 59.6124C290.735 59.6124 218.705 30.6506 156.353 2.78108C156.353 2.78108 123.759 -5.2491 106.754 9.86656C106.754 9.86656 120.925 7.97708 120.925 16.0073C120.925 16.0073 133.207 32.0677 94.9452 34.9018C68.2987 36.8757 57.6896 52.825 53.7039 62.3262C50.5922 69.9534 45.1223 76.3851 38.0939 80.6808C28.8841 86.1853 15.5364 90.2348 0 83.0832C0 83.0832 0.883252 84.441 2.55867 86.7033C32.5557 127.213 144.262 162.468 183.709 131.087C208.087 111.694 246.734 87.1809 274.438 99.5275C317.895 118.895 325.926 110.392 325.926 110.392L327.816 105.196C327.816 105.196 285.775 93.8588 284.83 79.2161C283.886 64.5728 290.735 59.6124 290.735 59.6124Z" fill="#FFD60A"/>
<path id="Vector_18" d="M332.775 63.3915C332.775 63.3915 342.931 67.4064 344.82 80.6326C344.82 80.6326 355.685 101.889 343.403 107.086C331.122 112.281 328.76 110.864 328.76 110.864V108.502C328.76 108.502 341.986 100.472 339.152 94.3312C336.318 88.1908 332.775 63.3915 332.775 63.3915Z" fill="#FFD60A"/>
<path id="Vector_19" d="M314.589 123.618C314.589 123.618 317.895 115.116 316.951 115.116C316.006 115.116 320.794 109.886 322.651 111.793C324.509 113.698 327.816 119.367 324.036 120.784C320.257 122.201 314.589 123.618 314.589 123.618Z" fill="#6C63FF"/>
<path id="Vector_20" d="M337.869 118.571C337.869 118.571 329.234 115.627 329.274 116.571C329.314 117.515 323.887 112.952 325.713 111.016C327.539 109.08 333.063 105.537 334.638 109.252C336.214 112.968 337.869 118.571 337.869 118.571Z" fill="#6C63FF"/>
<path id="Vector_21" d="M324.036 105.668C324.036 105.668 328.349 103.248 330.916 107.056C333.484 110.864 327.816 117.477 324.036 117.477C320.257 117.477 320.257 109.447 320.257 109.447L324.036 105.668Z" fill="#6C63FF"/>
<path id="Vector_22" opacity="0.1" d="M324.036 105.668C324.036 105.668 328.349 103.248 330.916 107.056C333.484 110.864 327.816 117.477 324.036 117.477C320.257 117.477 320.257 109.447 320.257 109.447L324.036 105.668Z" fill="black"/>
<path id="Vector_23" d="M295.624 26.4045C293.134 28.4575 290.772 30.7583 289.223 33.5901C288.411 35.1783 287.732 36.8312 287.194 38.5316C285.283 44.0288 280.535 49.5971 282.545 55.0586C283.118 56.6171 284.013 58.2604 283.498 59.8398C283.042 61.242 281.632 62.0603 280.613 63.1263C278.426 65.4139 278.058 68.8471 277.924 72.0098C277.68 77.8016 280.864 84.6267 284.712 88.9623C285.548 89.778 286.322 90.6544 287.028 91.5842C287.504 92.3257 287.816 93.161 287.941 94.0328C288.066 94.9052 288.002 95.794 287.754 96.6397L293.359 95.4695C293.561 97.5395 293.624 99.62 293.548 101.698C294.877 101.844 296.216 101.528 297.34 100.802C298.463 100.076 299.302 98.9853 299.714 97.7135C300.031 99.1951 300.549 100.627 301.254 101.968C302.898 99.9119 304.16 97.576 304.977 95.0733C306.05 91.867 306.281 88.4391 305.646 85.1187C305.052 82.6935 304.244 80.3257 303.233 78.0426C301.252 73.0373 299.634 67.8964 298.019 62.7614C297.179 60.0939 296.33 57.3404 296.585 54.5556L298.576 54.3392C298.598 53.2394 298.811 52.1519 299.205 51.1244C300.372 51.3713 301.495 51.7942 302.536 52.378L304.832 46.5517C306.348 48.1233 308.523 48.8348 310.605 49.4903L318.521 51.9832L318.569 50.4162C321.91 53.3743 325.715 55.761 329.833 57.4818C329.6 57.2009 329.43 56.8738 329.334 56.522C329.239 56.1708 329.219 55.8027 329.276 55.443C331.227 58.9374 330.447 63.2905 329.243 67.1074C328.039 70.9236 326.442 74.8096 326.927 78.7822C327.29 81.7533 328.811 84.5948 328.529 87.5744C328.39 89.0418 327.816 90.4381 327.638 91.9015C327.212 95.3906 329.047 98.7136 330.818 101.751L334.261 97.0209C335.522 95.2896 336.821 93.5213 338.606 92.338C340.438 91.1235 342.708 90.5788 344.305 89.0678C347.155 86.371 346.793 81.7761 345.866 77.9638C345.373 75.9368 344.777 73.8817 344.958 71.8032C345.266 68.2808 347.713 65.3664 349.092 62.1105C350.074 59.7362 350.5 57.169 350.337 54.6044C350.173 52.0405 349.425 49.5476 348.149 47.3179C346.438 44.3839 343.853 42.0207 342.241 39.0313C340.637 36.0555 340.025 32.5146 337.826 29.9464C336.752 28.7776 335.503 27.7828 334.125 26.9974C327.875 23.2428 320.857 20.953 313.596 20.3C306.71 19.5801 300.901 22.0548 295.624 26.4045Z" fill="#FF6584"/>
</g>
</g>
</svg>
